# Blender v3.3.0 OBJ File: 'Spiks.blend'
# www.blender.org
mtllib metal spikes3.mtl
o metal_spikes3
v 0.002086 0.465302 0.043853
v -0.002086 0.465302 0.043853
v -0.002086 0.700656 0.003080
v 0.002086 0.700656 0.003080
v -0.066481 0.465302 0.001376
v -0.066481 0.465302 -0.001376
v -0.004670 0.700656 -0.001376
v -0.004670 0.700656 0.001376
v 0.066481 0.465302 -0.001376
v 0.066481 0.465302 0.001376
v 0.004670 0.700656 0.001376
v 0.004670 0.700656 -0.001376
v -0.002086 0.465302 -0.043853
v 0.002086 0.465302 -0.043853
v 0.002086 0.700656 -0.003080
v -0.002086 0.700656 -0.003080
v -0.000323 0.396653 0.021384
v 0.000323 0.396653 0.021384
v -0.032418 0.396653 -0.000213
v -0.032418 0.396653 0.000213
v 0.000323 0.396653 -0.021384
v -0.000323 0.396653 -0.021384
v 0.032418 0.396653 0.000213
v 0.032418 0.396653 -0.000213
v -0.001074 0.396653 0.022580
v 0.001074 0.396653 0.022580
v -0.034231 0.396653 -0.000709
v -0.034231 0.396653 0.000709
v 0.001074 0.396653 -0.022580
v -0.001074 0.396653 -0.022580
v 0.034231 0.396653 0.000709
v 0.034231 0.396653 -0.000709
v -0.000323 -0.399424 0.021384
v 0.000323 -0.399424 0.021384
v -0.032418 -0.399424 -0.000213
v -0.032418 -0.399424 0.000213
v 0.000323 -0.399424 -0.021384
v -0.000323 -0.399424 -0.021384
v 0.032418 -0.399424 0.000213
v 0.032418 -0.399424 -0.000213
vt 0.677052 0.572145
vt 0.694367 0.500099
vt 0.695598 0.500169
vt 0.697848 0.566801
vt 0.734012 0.559635
vt 0.701534 0.498564
vt 0.702600 0.497865
vt 0.760055 0.556760
vt 0.396128 0.305425
vt 0.390748 0.301866
vt 0.390755 0.296129
vt 0.396144 0.292585
vt 0.699053 0.566502
vt 0.696823 0.500128
vt 0.698045 0.499976
vt 0.714488 0.561397
vt 0.715277 0.561207
vt 0.699243 0.499655
vt 0.700415 0.499160
vt 0.732701 0.559866
vt 0.675821 0.572357
vt 0.692975 0.499774
vt 0.746447 0.587310
vt 0.731916 0.582010
vt 0.934967 0.298028
vt 0.920598 0.298028
vt 0.920598 0.000509
vt 0.934967 0.000509
vt 0.718282 0.578960
vt 0.707528 0.586094
vt 0.694091 0.593594
vt 0.693786 0.594076
vt 0.731229 0.581895
vt 0.706939 0.586417
vt 0.718593 0.578902
vt 0.410213 0.301891
vt 0.404825 0.305435
vt 0.404841 0.292595
vt 0.410220 0.296153
vt 0.707596 0.586608
vt 0.707373 0.586776
vt 0.718610 0.579452
vt 0.718460 0.579495
vt 0.731595 0.582450
vt 0.731319 0.582419
vt 0.694682 0.593949
vt 0.694631 0.594124
vt 0.745753 0.587688
vt 0.974087 0.298202
vt 0.959718 0.298202
vt 0.959718 0.000684
vt 0.974087 0.000684
vt 0.940158 0.298114
vt 0.940158 0.000596
vt 0.979278 0.298288
vt 0.979278 0.000770
vt 0.993647 0.298288
vt 0.993647 0.000770
vt 0.954527 0.298114
vt 0.954527 0.000596
vt 0.998838 0.298376
vt 0.998838 0.000858
vn 0.5894 0.0286 0.8073
vn 0.5882 0.1593 0.7928
vn 0.4996 0.1570 0.8519
vn 0.5118 0.0275 0.8587
vn 0.5118 0.0275 -0.8587
vn 0.4997 0.1570 -0.8519
vn 0.5882 0.1594 -0.7929
vn 0.5894 0.0286 -0.8073
vn -0.4997 0.1570 -0.8519
vn -0.5881 0.1594 -0.7929
vn -0.5882 0.1594 0.7928
vn -0.4997 0.1570 0.8519
vn -0.5118 0.0275 0.8587
vn -0.5894 0.0286 0.8073
vn -0.5894 0.0286 -0.8073
vn -0.5118 0.0275 -0.8587
vn 0.5356 -0.3626 -0.7626
vn 0.4923 -0.3549 -0.7948
vn 0.5430 0.0000 -0.8397
vn 0.5583 0.0000 -0.8297
vn -0.5356 -0.3626 0.7626
vn -0.4923 -0.3549 0.7948
vn 0.5357 -0.3626 0.7626
vn -0.4923 -0.3549 -0.7948
vn 0.4923 -0.3549 0.7948
vn -0.5356 -0.3626 -0.7626
vn 0.0000 -1.0000 0.0000
vn -0.5430 0.0000 0.8397
vn -0.5583 0.0000 0.8297
vn -0.5430 0.0000 -0.8397
vn 0.5430 0.0000 0.8397
vn 0.5583 0.0000 0.8297
vn -0.5583 0.0000 -0.8297
g metal_spikes3_metal_spikes3_metal_spikes
usemtl metal_spikes
s 1
f 10/1/1 11/2/2 4/3/3 1/4/4
f 14/5/5 15/6/6 12/7/7 9/8/8
f 16/9/9 7/10/10 8/11/11 3/12/12
f 2/13/13 3/14/12 8/15/11 5/16/14
f 6/17/15 7/18/10 16/19/9 13/20/16
f 1/4/4 4/3/3 3/14/12 2/13/13
f 7/18/10 6/17/15 5/16/14 8/15/11
f 15/6/6 14/5/5 13/20/16 16/19/9
f 11/2/2 10/1/1 9/21/8 12/22/7
f 14/5/5 9/8/8 32/23/17 29/24/18
f 21/25/19 24/26/20 40/27/20 37/28/19
f 2/13/13 5/16/14 28/29/21 25/30/22
f 9/21/8 10/1/1 31/31/23 32/32/17
f 13/20/16 14/5/5 29/24/18 30/33/24
f 10/1/1 1/4/4 26/34/25 31/31/23
f 6/17/15 13/20/16 30/33/24 27/35/26
f 5/16/14 6/17/15 27/35/26 28/29/21
f 1/4/4 2/13/13 25/30/22 26/34/25
f 12/36/7 15/37/6 4/38/3 11/39/2
f 15/37/6 16/9/9 3/12/12 4/38/3
f 17/40/27 18/41/27 26/34/25 25/30/22
f 19/42/27 20/43/27 28/29/21 27/35/26
f 21/44/27 22/45/27 30/33/24 29/24/18
f 23/46/27 24/47/27 32/32/17 31/31/23
f 20/43/27 17/40/27 25/30/22 28/29/21
f 22/45/27 19/42/27 27/35/26 30/33/24
f 24/48/27 21/44/27 29/24/18 32/23/17
f 18/41/27 23/46/27 31/31/23 26/34/25
f 17/49/28 20/50/29 36/51/29 33/52/28
f 22/53/30 21/25/19 37/28/19 38/54/30
f 18/55/31 17/49/28 33/52/28 34/56/31
f 23/57/32 18/55/31 34/56/31 39/58/32
f 19/59/33 22/53/30 38/54/30 35/60/33
f 24/61/20 23/57/32 39/58/32 40/62/20
f 20/50/29 19/59/33 35/60/33 36/51/29
