# Blender v3.3.0 OBJ File: 'Spiks.blend'
# www.blender.org
mtllib metal spikes2.mtl
o metal_spikes2
v -0.050390 -0.437809 0.050525
v -0.050525 -0.437809 -0.050390
v 0.050525 -0.437809 0.050390
v 0.050390 -0.437809 -0.050525
v -0.002571 0.437809 0.002578
v -0.002578 0.437809 -0.002572
v 0.002578 0.437809 0.002571
v 0.002571 0.437809 -0.002579
v -0.259845 -0.437809 0.361238
v -0.360759 -0.437809 0.361238
v -0.259845 -0.437809 0.260324
v -0.360759 -0.437809 0.260324
v -0.307727 0.437809 0.313356
v -0.312877 0.437809 0.313356
v -0.307727 0.437809 0.308206
v -0.312877 0.437809 0.308206
v -0.360716 -0.437809 -0.050501
v -0.259801 -0.437809 -0.050414
v -0.360802 -0.437809 0.050414
v -0.259888 -0.437809 0.050501
v -0.312874 0.437809 -0.002577
v -0.307724 0.437809 -0.002573
v -0.312879 0.437809 0.002573
v -0.307729 0.437809 0.002577
v -0.360759 -0.437809 -0.260127
v -0.360759 -0.437809 -0.361042
v -0.259844 -0.437809 -0.260127
v -0.259844 -0.437809 -0.361042
v -0.312877 0.437809 -0.308010
v -0.312877 0.437809 -0.313160
v -0.307727 0.437809 -0.308010
v -0.307727 0.437809 -0.313160
v -0.050325 -0.437809 0.260191
v 0.050590 -0.437809 0.260456
v -0.050589 -0.437809 0.361106
v 0.050325 -0.437809 0.361370
v -0.002568 0.437809 0.308199
v 0.002582 0.437809 0.308213
v -0.002582 0.437809 0.313349
v 0.002568 0.437809 0.313363
v 0.050519 -0.437809 -0.360980
v 0.050395 -0.437809 -0.260065
v -0.050395 -0.437809 -0.361104
v -0.050519 -0.437809 -0.260189
v 0.002578 0.437809 -0.313156
v 0.002572 0.437809 -0.308006
v -0.002572 0.437809 -0.313163
v -0.002578 0.437809 -0.308013
v 0.361265 -0.437809 -0.260061
v 0.260351 -0.437809 -0.260325
v 0.361530 -0.437809 -0.360975
v 0.260616 -0.437809 -0.361240
v 0.313509 0.437809 -0.308068
v 0.308359 0.437809 -0.308082
v 0.313522 0.437809 -0.313218
v 0.308372 0.437809 -0.313232
v 0.361330 -0.437809 -0.050394
v 0.361466 -0.437809 0.050521
v 0.260416 -0.437809 -0.050259
v 0.260551 -0.437809 0.050656
v 0.313512 0.437809 -0.002447
v 0.313519 0.437809 0.002703
v 0.308362 0.437809 -0.002441
v 0.308369 0.437809 0.002709
v 0.260422 -0.437809 0.361111
v 0.260545 -0.437809 0.260196
v 0.361336 -0.437809 0.361234
v 0.361460 -0.437809 0.260320
v 0.308363 0.437809 0.313287
v 0.308369 0.437809 0.308137
v 0.313512 0.437809 0.313293
v 0.313519 0.437809 0.308143
vt 0.704036 0.595100
vt 0.750327 0.595095
vt 0.733083 0.997351
vt 0.726040 0.997352
vt 0.430873 0.305468
vt 0.420566 0.305455
vt 0.420579 0.295148
vt 0.430886 0.295161
vt 0.839478 0.994889
vt 0.793188 0.994889
vt 0.810470 0.592634
vt 0.817514 0.592634
vt 0.782909 0.997606
vt 0.736618 0.997744
vt 0.752706 0.595440
vt 0.759749 0.595419
vt 0.761868 0.593825
vt 0.808158 0.593712
vt 0.791860 0.996008
vt 0.784816 0.996025
vt 0.704036 0.595100
vt 0.750327 0.595095
vt 0.733083 0.997351
vt 0.726040 0.997352
vt 0.430873 0.305468
vt 0.420566 0.305455
vt 0.420579 0.295148
vt 0.430886 0.295161
vt 0.839478 0.994889
vt 0.793188 0.994889
vt 0.810470 0.592634
vt 0.817514 0.592634
vt 0.782909 0.997606
vt 0.736618 0.997744
vt 0.752706 0.595440
vt 0.759749 0.595419
vt 0.761868 0.593825
vt 0.808158 0.593712
vt 0.791860 0.996008
vt 0.784816 0.996025
vt 0.704036 0.595100
vt 0.750327 0.595095
vt 0.733083 0.997351
vt 0.726040 0.997352
vt 0.430873 0.305468
vt 0.420566 0.305455
vt 0.420579 0.295148
vt 0.430886 0.295161
vt 0.839478 0.994889
vt 0.793188 0.994889
vt 0.810470 0.592634
vt 0.817514 0.592634
vt 0.782909 0.997606
vt 0.736618 0.997744
vt 0.752706 0.595440
vt 0.759749 0.595419
vt 0.761868 0.593825
vt 0.808158 0.593712
vt 0.791860 0.996008
vt 0.784816 0.996025
vt 0.704036 0.595100
vt 0.750327 0.595095
vt 0.733083 0.997351
vt 0.726040 0.997352
vt 0.430873 0.305468
vt 0.420566 0.305455
vt 0.420579 0.295148
vt 0.430886 0.295161
vt 0.839478 0.994889
vt 0.793188 0.994889
vt 0.810470 0.592634
vt 0.817514 0.592634
vt 0.782909 0.997606
vt 0.736618 0.997744
vt 0.752706 0.595440
vt 0.759749 0.595419
vt 0.761868 0.593825
vt 0.808158 0.593712
vt 0.791860 0.996008
vt 0.784816 0.996025
vt 0.704036 0.595100
vt 0.750327 0.595095
vt 0.733083 0.997351
vt 0.726040 0.997352
vt 0.430873 0.305468
vt 0.420566 0.305455
vt 0.420579 0.295148
vt 0.430886 0.295161
vt 0.839478 0.994889
vt 0.793188 0.994889
vt 0.810470 0.592634
vt 0.817514 0.592634
vt 0.782909 0.997606
vt 0.736618 0.997744
vt 0.752706 0.595440
vt 0.759749 0.595419
vt 0.761868 0.593825
vt 0.808158 0.593712
vt 0.791860 0.996008
vt 0.784816 0.996025
vt 0.704036 0.595100
vt 0.750327 0.595095
vt 0.733083 0.997351
vt 0.726040 0.997352
vt 0.430873 0.305468
vt 0.420566 0.305455
vt 0.420579 0.295148
vt 0.430886 0.295161
vt 0.839478 0.994889
vt 0.793188 0.994889
vt 0.810470 0.592634
vt 0.817514 0.592634
vt 0.782909 0.997606
vt 0.736618 0.997744
vt 0.752706 0.595440
vt 0.759749 0.595419
vt 0.761868 0.593825
vt 0.808158 0.593712
vt 0.791860 0.996008
vt 0.784816 0.996025
vt 0.704036 0.595100
vt 0.750327 0.595095
vt 0.733083 0.997351
vt 0.726040 0.997352
vt 0.430873 0.305468
vt 0.420566 0.305455
vt 0.420579 0.295148
vt 0.430886 0.295161
vt 0.839478 0.994889
vt 0.793188 0.994889
vt 0.810470 0.592634
vt 0.817514 0.592634
vt 0.782909 0.997606
vt 0.736618 0.997744
vt 0.752706 0.595440
vt 0.759749 0.595419
vt 0.761868 0.593825
vt 0.808158 0.593712
vt 0.791860 0.996008
vt 0.784816 0.996025
vt 0.704036 0.595100
vt 0.750327 0.595095
vt 0.733083 0.997351
vt 0.726040 0.997352
vt 0.430873 0.305468
vt 0.420566 0.305455
vt 0.420579 0.295148
vt 0.430886 0.295161
vt 0.839478 0.994889
vt 0.793188 0.994889
vt 0.810470 0.592634
vt 0.817514 0.592634
vt 0.782909 0.997606
vt 0.736618 0.997744
vt 0.752706 0.595440
vt 0.759749 0.595419
vt 0.761868 0.593825
vt 0.808158 0.593712
vt 0.791860 0.996008
vt 0.784816 0.996025
vt 0.704036 0.595100
vt 0.750327 0.595095
vt 0.733083 0.997351
vt 0.726040 0.997352
vt 0.430873 0.305468
vt 0.420566 0.305455
vt 0.420579 0.295148
vt 0.430886 0.295161
vt 0.839478 0.994889
vt 0.793188 0.994889
vt 0.810470 0.592634
vt 0.817514 0.592634
vt 0.782909 0.997606
vt 0.736618 0.997744
vt 0.752706 0.595440
vt 0.759749 0.595419
vt 0.761868 0.593825
vt 0.808158 0.593712
vt 0.791860 0.996008
vt 0.784816 0.996025
vn -0.0013 0.0546 -0.9985
vn 0.0000 1.0000 0.0000
vn -0.9985 0.0546 0.0013
vn 0.9985 0.0546 -0.0013
vn 0.0013 0.0546 0.9985
vn -0.9985 0.0546 0.0000
vn -0.0000 0.0546 0.9985
vn 0.0000 0.0546 -0.9985
vn 0.9985 0.0546 0.0000
vn 0.9985 0.0546 0.0009
vn 0.0009 0.0546 -0.9985
vn -0.0009 0.0546 0.9985
vn -0.9985 0.0546 -0.0009
vn 0.9985 0.0546 0.0026
vn 0.0026 0.0546 -0.9985
vn -0.0026 0.0546 0.9985
vn -0.9985 0.0546 -0.0026
vn -0.0012 0.0546 0.9985
vn 0.9985 0.0546 0.0012
vn -0.9985 0.0546 -0.0012
vn 0.0012 0.0546 -0.9985
g metal_spikes2_metal_spikes2_metal_spikes
usemtl metal_spikes
s 1
f 4/1/1 2/2/1 6/3/1 8/4/1
f 7/5/2 8/6/2 6/7/2 5/8/2
f 2/9/3 1/10/3 5/11/3 6/12/3
f 3/13/4 4/14/4 8/15/4 7/16/4
f 1/17/5 3/18/5 7/19/5 5/20/5
f 12/21/6 10/22/6 14/23/6 16/24/6
f 15/25/2 16/26/2 14/27/2 13/28/2
f 10/29/7 9/30/7 13/31/7 14/32/7
f 11/33/8 12/34/8 16/35/8 15/36/8
f 9/37/9 11/38/9 15/39/9 13/40/9
f 20/41/10 18/42/10 22/43/10 24/44/10
f 23/45/2 24/46/2 22/47/2 21/48/2
f 18/49/11 17/50/11 21/51/11 22/52/11
f 19/53/12 20/54/12 24/55/12 23/56/12
f 17/57/13 19/58/13 23/59/13 21/60/13
f 28/61/8 26/62/8 30/63/8 32/64/8
f 31/65/2 32/66/2 30/67/2 29/68/2
f 26/69/6 25/70/6 29/71/6 30/72/6
f 27/73/9 28/74/9 32/75/9 31/76/9
f 25/77/7 27/78/7 31/79/7 29/80/7
f 36/81/14 34/82/14 38/83/14 40/84/14
f 39/85/2 40/86/2 38/87/2 37/88/2
f 34/89/15 33/90/15 37/91/15 38/92/15
f 35/93/16 36/94/16 40/95/16 39/96/16
f 33/97/17 35/98/17 39/99/17 37/100/17
f 44/101/18 42/102/18 46/103/18 48/104/18
f 47/105/2 48/106/2 46/107/2 45/108/2
f 42/109/19 41/110/19 45/111/19 46/112/19
f 43/113/20 44/114/20 48/115/20 47/116/20
f 41/117/21 43/118/21 47/119/21 45/120/21
f 52/121/17 50/122/17 54/123/17 56/124/17
f 55/125/2 56/126/2 54/127/2 53/128/2
f 50/129/16 49/130/16 53/131/16 54/132/16
f 51/133/15 52/134/15 56/135/15 55/136/15
f 49/137/14 51/138/14 55/139/14 53/140/14
f 60/141/5 58/142/5 62/143/5 64/144/5
f 63/145/2 64/146/2 62/147/2 61/148/2
f 58/149/4 57/150/4 61/151/4 62/152/4
f 59/153/3 60/154/3 64/155/3 63/156/3
f 57/157/1 59/158/1 63/159/1 61/160/1
f 68/161/21 66/162/21 70/163/21 72/164/21
f 71/165/2 72/166/2 70/167/2 69/168/2
f 66/169/20 65/170/20 69/171/20 70/172/20
f 67/173/19 68/174/19 72/175/19 71/176/19
f 65/177/18 67/178/18 71/179/18 69/180/18
