# Blender v3.3.0 OBJ File: 'Spiks.blend'
# www.blender.org
mtllib Platform1.mtl
o Platform1
v -0.604581 -0.102196 0.604581
v -0.604581 -0.036404 0.604581
v -0.201527 -0.102196 0.604581
v -0.201527 -0.036404 0.604581
v -0.604581 -0.102196 0.201527
v -0.604581 -0.036404 0.201527
v -0.050457 0.029646 0.361111
v -0.050457 0.029646 0.260197
v -0.155327 0.102196 0.465981
v -0.465981 0.102196 0.465981
v -0.260197 0.029646 0.361111
v -0.361111 0.029646 0.361111
v -0.260197 0.029646 0.260197
v -0.361111 0.029646 0.260197
v -0.465981 0.102196 0.155327
v -0.361111 0.029646 0.050457
v -0.260197 0.029646 0.050457
v -0.155327 0.102196 0.155327
v -0.050457 0.029646 0.050457
v -0.394066 0.087740 0.394066
v -0.437727 0.102196 0.437727
v -0.127074 0.102196 0.437727
v -0.083412 0.087740 0.394066
v -0.394066 0.087740 0.227242
v -0.437727 0.102196 0.183580
v -0.083412 0.087740 0.227242
v -0.127074 0.102196 0.183580
v -0.183580 0.102196 0.437728
v -0.227242 0.087740 0.394066
v -0.183580 0.102196 0.183580
v -0.227242 0.087740 0.227242
v -0.227242 0.087740 0.083412
v -0.183580 0.102196 0.127074
v -0.437727 0.102196 0.127074
v -0.394066 0.087740 0.083412
v -0.127074 0.102196 0.127074
v -0.083412 0.087740 0.083412
v 0.604581 -0.102196 0.604581
v 0.604581 -0.036404 0.604581
v 0.201527 -0.102196 0.604581
v 0.201527 -0.036404 0.604581
v 0.604581 -0.102196 0.201527
v 0.604581 -0.036404 0.201527
v 0.050457 0.029646 0.361111
v 0.050457 0.029646 0.260197
v 0.155327 0.102196 0.465981
v 0.465981 0.102196 0.465981
v 0.260197 0.029646 0.361111
v 0.361111 0.029646 0.361111
v 0.260197 0.029646 0.260197
v 0.361111 0.029646 0.260197
v 0.465981 0.102196 0.155327
v 0.361111 0.029646 0.050457
v 0.260197 0.029646 0.050457
v 0.155327 0.102196 0.155327
v 0.050457 0.029646 0.050457
v 0.394066 0.087740 0.394066
v 0.437727 0.102196 0.437727
v 0.127074 0.102196 0.437727
v 0.083412 0.087740 0.394066
v 0.394066 0.087740 0.227242
v 0.437727 0.102196 0.183580
v 0.083412 0.087740 0.227242
v 0.127074 0.102196 0.183580
v 0.183580 0.102196 0.437728
v 0.227242 0.087740 0.394066
v 0.183580 0.102196 0.183580
v 0.227242 0.087740 0.227242
v 0.227242 0.087740 0.083412
v 0.183580 0.102196 0.127074
v 0.437727 0.102196 0.127074
v 0.394066 0.087740 0.083412
v 0.127074 0.102196 0.127074
v 0.083412 0.087740 0.083412
v -0.604581 -0.102196 -0.604581
v -0.604581 -0.036404 -0.604581
v -0.201527 -0.102196 -0.604581
v -0.201527 -0.036404 -0.604581
v -0.604581 -0.102196 -0.201527
v -0.604581 -0.036404 -0.201527
v -0.050457 0.029646 -0.361111
v -0.050457 0.029646 -0.260197
v -0.155327 0.102196 -0.465981
v -0.465981 0.102196 -0.465981
v -0.260197 0.029646 -0.361111
v -0.361111 0.029646 -0.361111
v -0.260197 0.029646 -0.260197
v -0.361111 0.029646 -0.260197
v -0.465981 0.102196 -0.155327
v -0.361111 0.029646 -0.050457
v -0.260197 0.029646 -0.050457
v -0.155327 0.102196 -0.155327
v -0.050457 0.029646 -0.050457
v -0.394066 0.087740 -0.394066
v -0.437727 0.102196 -0.437727
v -0.127074 0.102196 -0.437727
v -0.083412 0.087740 -0.394066
v -0.394066 0.087740 -0.227242
v -0.437727 0.102196 -0.183580
v -0.083412 0.087740 -0.227242
v -0.127074 0.102196 -0.183580
v -0.183580 0.102196 -0.437728
v -0.227242 0.087740 -0.394066
v -0.183580 0.102196 -0.183580
v -0.227242 0.087740 -0.227242
v -0.227242 0.087740 -0.083412
v -0.183580 0.102196 -0.127074
v -0.437727 0.102196 -0.127074
v -0.394066 0.087740 -0.083412
v -0.127074 0.102196 -0.127074
v -0.083412 0.087740 -0.083412
v 0.604581 -0.102196 -0.604581
v 0.604581 -0.036404 -0.604581
v 0.201527 -0.102196 -0.604581
v 0.201527 -0.036404 -0.604581
v 0.604581 -0.102196 -0.201527
v 0.604581 -0.036404 -0.201527
v 0.050457 0.029646 -0.361111
v 0.050457 0.029646 -0.260197
v 0.155327 0.102196 -0.465981
v 0.465981 0.102196 -0.465981
v 0.260197 0.029646 -0.361111
v 0.361111 0.029646 -0.361111
v 0.260197 0.029646 -0.260197
v 0.361111 0.029646 -0.260197
v 0.465981 0.102196 -0.155327
v 0.361111 0.029646 -0.050457
v 0.260197 0.029646 -0.050457
v 0.155327 0.102196 -0.155327
v 0.050457 0.029646 -0.050457
v 0.394066 0.087740 -0.394066
v 0.437727 0.102196 -0.437727
v 0.127074 0.102196 -0.437727
v 0.083412 0.087740 -0.394066
v 0.394066 0.087740 -0.227242
v 0.437727 0.102196 -0.183580
v 0.083412 0.087740 -0.227242
v 0.127074 0.102196 -0.183580
v 0.183580 0.102196 -0.437728
v 0.227242 0.087740 -0.394066
v 0.183580 0.102196 -0.183580
v 0.227242 0.087740 -0.227242
v 0.227242 0.087740 -0.083412
v 0.183580 0.102196 -0.127074
v 0.437727 0.102196 -0.127074
v 0.394066 0.087740 -0.083412
v 0.127074 0.102196 -0.127074
v 0.083412 0.087740 -0.083412
vt 0.676869 0.158324
vt 0.676869 0.049488
vt 0.745540 0.000930
vt 0.745540 0.142138
vt 0.852074 0.094625
vt 0.837080 0.094625
vt 0.837080 0.002768
vt 0.852074 0.002768
vt 0.852074 0.186482
vt 0.837080 0.186482
vt 0.192438 0.271688
vt 0.233816 0.271688
vt 0.233816 0.313066
vt 0.192438 0.313066
vt 0.535636 0.332390
vt 0.536222 0.439695
vt 0.468429 0.424106
vt 0.467669 0.284885
vt 0.901771 0.277483
vt 0.886777 0.277483
vt 0.886777 0.185625
vt 0.901771 0.185625
vt 0.342503 0.104352
vt 0.265828 0.104370
vt 0.257307 0.095845
vt 0.351000 0.095867
vt 0.359515 0.010630
vt 0.359503 0.087369
vt 0.351064 0.002178
vt 0.425237 0.773845
vt 0.372267 0.773845
vt 0.387437 0.755985
vt 0.409472 0.757762
vt 0.444729 0.002048
vt 0.436249 0.010560
vt 0.408136 0.735696
vt 0.426294 0.720888
vt 0.313798 0.998155
vt 0.313809 0.944295
vt 0.331343 0.959423
vt 0.328852 0.980402
vt 0.342554 0.010653
vt 0.265864 0.010676
vt 0.257393 0.002173
vt 0.367459 0.943473
vt 0.367459 0.997333
vt 0.349921 0.982205
vt 0.352409 0.961226
vt 0.233145 0.478456
vt 0.192144 0.478456
vt 0.192144 0.437455
vt 0.233145 0.437455
vt 0.265818 0.087373
vt 0.342517 0.087367
vt 0.256976 0.773424
vt 0.311097 0.774002
vt 0.294313 0.790608
vt 0.275105 0.788522
vt 0.265837 0.181022
vt 0.257363 0.189519
vt 0.407883 0.870076
vt 0.410372 0.849098
vt 0.425422 0.831344
vt 0.425422 0.885204
vt 0.444775 0.095807
vt 0.436234 0.104329
vt 0.359509 0.104343
vt 0.359456 0.181077
vt 0.350987 0.189521
vt 0.342535 0.181064
vt 0.373302 0.024414
vt 0.373084 0.073584
vt 0.328962 0.024413
vt 0.279620 0.024272
vt 0.328749 0.073775
vt 0.279411 0.073621
vt 0.279596 0.167436
vt 0.279408 0.117951
vt 0.328919 0.118125
vt 0.328758 0.167282
vt 0.422485 0.024156
vt 0.422643 0.073691
vt 0.436245 0.087281
vt 0.745540 0.283346
vt 0.676869 0.267160
vt 0.371760 0.886027
vt 0.386815 0.868273
vt 0.280501 0.025445
vt 0.327545 0.025445
vt 0.327545 0.072489
vt 0.280501 0.072489
vt 0.371760 0.719283
vt 0.388716 0.736585
vt 0.311097 0.828127
vt 0.296194 0.809838
vt 0.193786 0.603743
vt 0.233073 0.603743
vt 0.233073 0.643030
vt 0.193786 0.643030
vt 0.901771 0.093768
vt 0.886777 0.093768
vt 0.536808 0.547000
vt 0.469189 0.563328
vt 0.745540 0.424554
vt 0.676869 0.375996
vt 0.852074 0.278340
vt 0.837080 0.278340
vt 0.373061 0.167324
vt 0.422419 0.167487
vt 0.436199 0.181087
vt 0.257156 0.334099
vt 0.324494 0.285708
vt 0.325557 0.424928
vt 0.257975 0.441402
vt 0.885493 0.001911
vt 0.885493 0.093768
vt 0.870499 0.093768
vt 0.870499 0.001911
vt 0.453229 0.104280
vt 0.538525 0.095825
vt 0.529991 0.104349
vt 0.483785 0.774918
vt 0.498840 0.792671
vt 0.501330 0.813650
vt 0.483797 0.828778
vt 0.453240 0.010536
vt 0.538479 0.002073
vt 0.529997 0.010580
vt 0.537446 0.829601
vt 0.522396 0.811847
vt 0.519908 0.790869
vt 0.537446 0.775741
vt 0.192648 0.188787
vt 0.233377 0.188787
vt 0.233377 0.229517
vt 0.192648 0.229517
vt 0.530015 0.087338
vt 0.453256 0.087297
vt 0.311350 0.772012
vt 0.295496 0.755884
vt 0.294160 0.735241
vt 0.311350 0.719036
vt 0.529999 0.181087
vt 0.538477 0.189605
vt 0.371772 0.832167
vt 0.389305 0.847295
vt 0.444692 0.189592
vt 0.453201 0.181090
vt 0.466835 0.024311
vt 0.516224 0.024182
vt 0.467029 0.073692
vt 0.516419 0.073563
vt 0.516226 0.167476
vt 0.516394 0.117933
vt 0.467015 0.118092
vt 0.466801 0.167301
vt 0.256976 0.716942
vt 0.274934 0.732407
vt 0.192173 0.354820
vt 0.233115 0.354820
vt 0.233115 0.395761
vt 0.192173 0.395761
vt 0.885493 0.185625
vt 0.870499 0.185625
vt 0.258794 0.548706
vt 0.326619 0.564147
vt 0.395491 0.439715
vt 0.327618 0.424482
vt 0.326129 0.285266
vt 0.394344 0.332415
vt 0.918048 0.185626
vt 0.918048 0.277483
vt 0.903054 0.277483
vt 0.903054 0.185626
vt 0.918048 0.093768
vt 0.903054 0.093768
vt 0.537393 0.654305
vt 0.469950 0.702549
vt 0.901771 0.001911
vt 0.886777 0.001911
vt 0.359500 0.274706
vt 0.351047 0.283144
vt 0.359502 0.198051
vt 0.370002 0.773745
vt 0.354148 0.757617
vt 0.352811 0.736974
vt 0.370002 0.720769
vt 0.444673 0.283334
vt 0.436203 0.274815
vt 0.331942 0.755260
vt 0.316687 0.773068
vt 0.256976 0.885626
vt 0.272030 0.903380
vt 0.274521 0.924359
vt 0.256987 0.939487
vt 0.342548 0.274671
vt 0.257432 0.283141
vt 0.265900 0.274644
vt 0.310637 0.940309
vt 0.295587 0.922556
vt 0.293099 0.901577
vt 0.310637 0.886449
vt 0.150670 0.354628
vt 0.150670 0.395518
vt 0.109780 0.395518
vt 0.109780 0.354628
vt 0.265864 0.197994
vt 0.342519 0.198020
vt 0.257704 0.826828
vt 0.273837 0.810867
vt 0.373069 0.211632
vt 0.373296 0.260934
vt 0.328970 0.260918
vt 0.279651 0.261058
vt 0.328768 0.211609
vt 0.279444 0.211748
vt 0.422460 0.261221
vt 0.436192 0.198083
vt 0.422595 0.211863
vt 0.329107 0.563697
vt 0.396639 0.547016
vt 0.150809 0.436947
vt 0.150809 0.478138
vt 0.109618 0.478138
vt 0.109618 0.436947
vt 0.333586 0.734140
vt 0.315628 0.718675
vt 0.373277 0.117943
vt 0.397786 0.654316
vt 0.330596 0.702913
vt 0.903054 0.001911
vt 0.918048 0.001911
vt 0.259613 0.656009
vt 0.327682 0.703367
vt 0.885493 0.277483
vt 0.870499 0.277483
vt 0.537446 0.718823
vt 0.537446 0.772683
vt 0.519908 0.757555
vt 0.522396 0.736577
vt 0.453186 0.274857
vt 0.529913 0.274827
vt 0.538388 0.283334
vt 0.483785 0.773506
vt 0.483797 0.719646
vt 0.501330 0.734774
vt 0.498840 0.755752
vt 0.109576 0.105406
vt 0.151500 0.105406
vt 0.151500 0.147331
vt 0.109576 0.147331
vt 0.529957 0.198082
vt 0.453192 0.198095
vt 0.258035 0.771336
vt 0.273290 0.753527
vt 0.466783 0.261091
vt 0.516149 0.261223
vt 0.466982 0.211690
vt 0.516354 0.211841
vt 0.422630 0.118089
vn 0.0000 0.7071 0.7071
vn 0.0000 0.0000 1.0000
vn 0.0000 1.0000 0.0000
vn -0.7071 0.7071 0.0000
vn -1.0000 0.0000 0.0000
vn -0.0051 1.0000 -0.0051
vn 0.0051 1.0000 -0.0051
vn 0.0051 1.0000 0.0051
vn 0.5516 0.6258 0.5516
vn 0.5516 0.6258 -0.5516
vn -0.5516 0.6258 0.5516
vn -0.5516 0.6258 -0.5516
vn -0.0051 1.0000 0.0051
vn 0.1612 0.9737 -0.1612
vn 0.1612 0.9737 0.1612
vn -0.1612 0.9737 -0.1612
vn -0.1612 0.9737 0.1612
vn 0.7071 0.7071 0.0000
vn 1.0000 0.0000 0.0000
vn 0.0000 0.7071 -0.7071
vn 0.0000 0.0000 -1.0000
g Platform1_Platform1_Platforms
usemtl Platforms
s 1
f 9/1/1 10/2/1 2/3/1 4/4/1
f 3/5/2 4/6/2 2/7/2 1/8/2
f 40/9/2 41/10/2 4/6/2 3/5/2
f 56/11/3 130/12/3 93/13/3 19/14/3
f 10/15/4 15/16/4 6/17/4 2/18/4
f 1/19/5 2/20/5 6/21/5 5/22/5
f 33/23/6 34/24/7 15/25/3 18/26/3
f 22/27/7 27/28/8 18/26/3 9/29/3
f 26/30/9 23/31/10 7/32/10 8/33/9
f 46/34/3 59/35/6 22/27/7 9/29/3
f 45/36/11 63/37/11 26/30/9 8/33/9
f 24/38/9 20/39/10 12/40/10 14/41/9
f 28/42/6 21/43/7 10/44/3 9/29/3
f 29/45/12 31/46/11 13/47/11 11/48/12
f 13/49/3 14/50/3 12/51/3 11/52/3
f 25/53/8 30/54/13 18/26/3 15/25/3
f 21/43/7 25/53/8 15/25/3 10/44/3
f 30/54/13 28/42/6 9/29/3 18/26/3
f 35/55/10 32/56/12 17/57/12 16/58/10
f 108/59/8 89/60/3 15/25/3 34/24/7
f 19/61/10 93/62/9 111/63/9 37/64/10
f 55/65/3 73/66/6 36/67/7 18/26/3
f 110/68/8 92/69/3 18/26/3 36/67/7
f 18/26/3 92/69/3 107/70/13 33/23/6
f 31/46/11 24/38/9 14/41/9 13/47/11
f 27/28/8 22/27/7 23/71/14 26/72/15
f 29/73/16 20/74/14 21/43/7 28/42/6
f 31/75/17 29/73/16 28/42/6 30/54/13
f 20/74/14 24/76/15 25/53/8 21/43/7
f 24/76/15 31/75/17 30/54/13 25/53/8
f 109/77/15 108/59/8 34/24/7 35/78/14
f 34/24/7 33/23/6 32/79/16 35/78/14
f 33/23/6 107/70/13 106/80/17 32/79/16
f 59/35/6 60/81/16 23/71/14 22/27/7
f 26/72/15 63/82/17 64/83/13 27/28/8
f 20/39/10 29/45/12 11/48/12 12/40/10
f 41/84/1 46/85/1 9/1/1 4/4/1
f 37/64/10 74/86/12 56/87/12 19/61/10
f 44/88/3 45/89/3 8/90/3 7/91/3
f 23/31/10 60/92/12 44/93/12 7/32/10
f 27/28/8 64/83/13 55/65/3 18/26/3
f 106/94/11 91/95/11 17/57/12 32/56/12
f 17/96/3 91/97/3 90/98/3 16/99/3
f 79/100/5 5/22/5 6/21/5 80/101/5
f 89/102/4 80/103/4 6/17/4 15/16/4
f 46/85/1 41/84/1 39/104/1 47/105/1
f 40/9/2 38/106/2 39/107/2 41/10/2
f 111/108/15 148/109/17 147/110/13 110/68/8
f 47/111/18 39/112/18 43/113/18 52/114/18
f 38/115/19 42/116/19 43/117/19 39/118/19
f 70/119/7 55/65/3 52/120/3 71/121/6
f 59/35/6 46/34/3 55/65/3 64/83/13
f 63/37/11 45/36/11 44/93/12 60/92/12
f 61/122/11 51/123/11 49/124/12 57/125/12
f 65/126/7 46/34/3 47/127/3 58/128/6
f 66/129/10 48/130/10 50/131/9 68/132/9
f 50/133/3 48/134/3 49/135/3 51/136/3
f 62/137/13 52/120/3 55/65/3 67/138/8
f 58/128/6 47/127/3 52/120/3 62/137/13
f 67/138/8 55/65/3 46/34/3 65/126/7
f 72/139/12 53/140/12 54/141/10 69/142/10
f 145/143/13 71/121/6 52/120/3 126/144/3
f 74/86/12 148/145/11 130/146/11 56/87/12
f 147/110/13 73/66/6 55/65/3 129/147/3
f 70/119/7 144/148/8 129/147/3 55/65/3
f 68/132/9 50/131/9 51/123/11 61/122/11
f 64/83/13 63/82/17 60/81/16 59/35/6
f 66/149/14 65/126/7 58/128/6 57/150/16
f 68/151/15 67/138/8 65/126/7 66/149/14
f 57/150/16 58/128/6 62/137/13 61/152/17
f 61/152/17 62/137/13 67/138/8 68/151/15
f 146/153/17 72/154/16 71/121/6 145/143/13
f 71/121/6 72/154/16 69/155/14 70/119/7
f 69/155/14 143/156/15 144/148/8 70/119/7
f 57/125/12 49/124/12 48/130/10 66/129/10
f 143/157/9 69/142/10 54/141/10 128/158/9
f 53/159/3 127/160/3 128/161/3 54/162/3
f 116/163/19 117/164/19 43/117/19 42/116/19
f 126/165/18 52/114/18 43/113/18 117/166/18
f 83/167/20 78/168/20 76/169/20 84/170/20
f 77/171/21 75/172/21 76/173/21 78/174/21
f 114/175/21 77/171/21 78/174/21 115/176/21
f 84/177/4 76/178/4 80/103/4 89/102/4
f 75/179/5 79/100/5 80/101/5 76/180/5
f 107/70/13 92/69/3 89/60/3 108/59/8
f 96/181/8 83/182/3 92/69/3 101/183/7
f 100/184/10 82/185/10 81/186/9 97/187/9
f 120/188/3 83/182/3 96/181/8 133/189/13
f 119/190/12 82/185/10 100/184/10 137/191/12
f 98/192/10 88/193/10 86/194/9 94/195/9
f 102/196/13 83/182/3 84/197/3 95/198/8
f 103/199/11 85/200/11 87/201/12 105/202/12
f 87/203/3 85/204/3 86/205/3 88/206/3
f 99/207/7 89/60/3 92/69/3 104/208/6
f 95/198/8 84/197/3 89/60/3 99/207/7
f 104/208/6 92/69/3 83/182/3 102/196/13
f 109/209/9 90/210/9 91/95/11 106/94/11
f 129/147/3 92/69/3 110/68/8 147/110/13
f 105/202/12 87/201/12 88/193/10 98/192/10
f 16/58/10 90/210/9 109/209/9 35/55/10
f 101/183/7 100/211/14 97/212/15 96/181/8
f 103/213/17 102/196/13 95/198/8 94/214/15
f 105/215/16 104/208/6 102/196/13 103/213/17
f 94/214/15 95/198/8 99/207/7 98/216/14
f 98/216/14 99/207/7 104/208/6 105/215/16
f 108/59/8 109/77/15 106/80/17 107/70/13
f 133/189/13 96/181/8 97/212/15 134/217/17
f 101/183/7 138/218/6 137/219/16 100/211/14
f 94/195/9 86/194/9 85/200/11 103/199/11
f 115/220/20 78/168/20 83/167/20 120/221/20
f 93/62/9 130/146/11 148/145/11 111/63/9
f 118/222/3 81/223/3 82/224/3 119/225/3
f 81/186/9 118/226/11 134/227/11 97/187/9
f 92/69/3 129/147/3 138/218/6 101/183/7
f 37/228/14 111/108/15 110/68/8 36/67/7
f 120/221/20 121/229/20 113/230/20 115/220/20
f 114/175/21 115/176/21 113/231/21 112/232/21
f 121/233/18 126/165/18 117/166/18 113/234/18
f 112/235/19 113/236/19 117/164/19 116/163/19
f 144/148/8 145/143/13 126/144/3 129/147/3
f 133/189/13 138/218/6 129/147/3 120/188/3
f 137/191/12 134/227/11 118/226/11 119/190/12
f 135/237/12 131/238/11 123/239/11 125/240/12
f 139/241/8 132/242/13 121/243/3 120/188/3
f 140/244/9 142/245/10 124/246/10 122/247/9
f 124/248/3 125/249/3 123/250/3 122/251/3
f 136/252/6 141/253/7 129/147/3 126/144/3
f 132/242/13 136/252/6 126/144/3 121/243/3
f 141/253/7 139/241/8 120/188/3 129/147/3
f 146/254/11 143/157/9 128/158/9 127/255/11
f 142/245/10 135/237/12 125/240/12 124/246/10
f 72/139/12 146/254/11 127/255/11 53/140/12
f 138/218/6 133/189/13 134/217/17 137/219/16
f 140/256/15 131/257/17 132/242/13 139/241/8
f 142/258/14 140/256/15 139/241/8 141/253/7
f 131/257/17 135/259/16 136/252/6 132/242/13
f 135/259/16 142/258/14 141/253/7 136/252/6
f 145/143/13 144/148/8 143/156/15 146/153/17
f 131/238/11 140/244/9 122/247/9 123/239/11
f 73/66/6 147/110/13 148/109/17 74/260/16
f 36/67/7 73/66/6 74/260/16 37/228/14
